<svg width="118" height="129" viewBox="0 0 118 129" fill="none" xmlns="http://www.w3.org/2000/svg">
<ellipse cx="59" cy="59.3957" rx="59" ry="55.6835" fill="#46467A" fill-opacity="0.8"/>
<path d="M64.5567 101.265C64.5567 101.265 65.8367 100.305 66.3487 97.105C66.6047 95.441 66.7327 89.809 66.7327 84.497V78.865C66.7327 72.529 66.6687 67.409 66.3487 65.233C65.8367 62.033 64.5567 61.073 64.5567 61.073C64.5567 61.073 67.7567 61.265 72.4927 59.985C77.1007 58.769 77.7407 57.745 77.7407 57.745V61.009C78.8927 59.601 80.8767 58.193 84.4607 58.193C93.8687 58.193 98.8607 64.913 98.7327 74.449C98.8607 83.857 94.0607 91.217 84.3967 91.217C81.1967 91.217 78.7647 89.233 77.7407 87.697C77.8047 91.921 77.9327 95.761 78.1247 97.105C78.6367 100.305 79.9167 101.265 79.9167 101.265H64.5567ZM80.1087 87.441C83.6927 87.441 84.3967 78.673 84.3967 76.113C84.3967 66.577 83.3087 61.585 80.1087 61.585C79.4687 61.585 78.6367 61.969 77.7407 62.609V86.289C78.5087 86.993 79.4687 87.441 80.1087 87.441Z" fill="white"/>
<path d="M81.6167 30.6259L82.8459 28.0737L85.55 26.9137L82.8459 25.7536L81.6167 23.2014L80.3875 25.7536L77.6834 26.9137L80.3875 28.0737L81.6167 30.6259ZM74.2417 31.0899L71.7834 25.9856L69.325 31.0899L63.9167 33.4101L69.325 35.7302L71.7834 40.8345L74.2417 35.7302L79.65 33.4101L74.2417 31.0899ZM81.6167 36.1943L80.3875 38.7464L77.6834 39.9065L80.3875 41.0666L81.6167 43.6187L82.8459 41.0666L85.55 39.9065L82.8459 38.7464L81.6167 36.1943Z" fill="white"/>
<path d="M40.825 76.52C31.985 76.52 24.9 70.15 24.9 59.49C24.9 49.22 31.985 42.98 40.825 42.98C50.705 42.98 54.93 47.66 54.93 52.925C54.93 56.89 51.875 59.88 48.17 59.88C44.595 59.88 41.735 57.215 41.41 53.9C43.035 53.185 44.205 51.625 44.335 49.805C44.335 49.48 44.4 49.025 44.4 48.57C44.4 46.75 43.945 44.28 41.28 44.28C38.94 44.28 37.055 47.4 37.055 52.795C37.055 54.68 37.315 56.825 37.835 59.23C39.07 64.82 43.165 67.81 47.195 67.81C50.445 67.81 53.565 65.925 55.19 61.895C54.995 71.775 49.405 76.52 40.825 76.52Z" fill="white"/>
</svg>
